<?xml version="1.0" encoding="utf-8"?>
<!-- Generator: Adobe Illustrator 24.0.3, SVG Export Plug-In . SVG Version: 6.00 Build 0)  -->
<!DOCTYPE svg PUBLIC "-//W3C//DTD SVG 1.1//EN" "http://www.w3.org/Graphics/SVG/1.1/DTD/svg11.dtd" [
	<!ENTITY ns_extend "http://ns.adobe.com/Extensibility/1.0/">
	<!ENTITY ns_ai "http://ns.adobe.com/AdobeIllustrator/10.0/">
	<!ENTITY ns_graphs "http://ns.adobe.com/Graphs/1.0/">
	<!ENTITY ns_vars "http://ns.adobe.com/Variables/1.0/">
	<!ENTITY ns_imrep "http://ns.adobe.com/ImageReplacement/1.0/">
	<!ENTITY ns_sfw "http://ns.adobe.com/SaveForWeb/1.0/">
	<!ENTITY ns_custom "http://ns.adobe.com/GenericCustomNamespace/1.0/">
	<!ENTITY ns_adobe_xpath "http://ns.adobe.com/XPath/1.0/">
]>
<svg version="1.1"
	 id="Layer_1" xmlns:x="&ns_extend;" xmlns:i="&ns_ai;" xmlns:graph="&ns_graphs;" image-rendering="optimizeQuality" shape-rendering="geometricPrecision" text-rendering="geometricPrecision"
	 xmlns="http://www.w3.org/2000/svg" xmlns:xlink="http://www.w3.org/1999/xlink" x="0px" y="0px" viewBox="0 0 400.1 321"
	 style="enable-background:new 0 0 400.1 321;" xml:space="preserve">
<style type="text/css">
	.st0{fill-rule:evenodd;clip-rule:evenodd;fill:#E8E8E8;}
	.st1{fill-rule:evenodd;clip-rule:evenodd;fill:#FFFFFF;}
	.st2{fill-rule:evenodd;clip-rule:evenodd;fill:#4D4039;stroke:#000000;stroke-width:0.5669;stroke-miterlimit:10;}
	.st3{fill-rule:evenodd;clip-rule:evenodd;fill:#40352F;}
	.st4{fill-rule:evenodd;clip-rule:evenodd;fill:#BF7E56;}
	.st5{fill-rule:evenodd;clip-rule:evenodd;fill:#FAD7BB;}
	.st6{fill-rule:evenodd;clip-rule:evenodd;fill:#E3C3A8;}
	.st7{fill-rule:evenodd;clip-rule:evenodd;fill:#A16A49;}
	.st8{fill-rule:evenodd;clip-rule:evenodd;fill:#FFFFFF;stroke:#332C2B;stroke-width:0.5669;stroke-miterlimit:10;}
	.st9{fill-rule:evenodd;clip-rule:evenodd;fill:#CCCCCC;}
	.st10{fill-rule:evenodd;clip-rule:evenodd;fill:#E6E6E6;}
	.st11{fill-rule:evenodd;clip-rule:evenodd;fill:#FEDDA6;}
	.st12{fill-rule:evenodd;clip-rule:evenodd;fill:#BDA274;}
	.st13{fill-rule:evenodd;clip-rule:evenodd;fill:#C97463;}
	.st14{fill-rule:evenodd;clip-rule:evenodd;fill:#FFCC00;}
	.st15{fill-rule:evenodd;clip-rule:evenodd;fill:#E8BA03;}
	.st16{fill-rule:evenodd;clip-rule:evenodd;fill:#AB6152;}
	.st17{fill-rule:evenodd;clip-rule:evenodd;fill:#949596;}
	.st18{fill-rule:evenodd;clip-rule:evenodd;fill:#D7D7E3;}
	.st19{fill-rule:evenodd;clip-rule:evenodd;fill:#C5C5D4;}
	.st20{fill-rule:evenodd;clip-rule:evenodd;fill:#ECF2FD;}
	.st21{fill-rule:evenodd;clip-rule:evenodd;fill:#969AA3;}
</style>
<metadata>
	<sfw  xmlns="&ns_sfw;">
		<slices></slices>
		<sliceSourceBounds  bottomLeftOrigin="true" height="321" width="400.1" x="293.9" y="126.3"></sliceSourceBounds>
	</sfw>
</metadata>
<path class="st0" d="M58.9,134.5c-5.7,1.7-10.3,3.1-13.8,4.3c-8.9,2.7-11.6,3.4-12.8,6.2c-1.2,2.8-1.1,7.8-1.8,11.7
	c-0.7,3.8-2.2,6.5-3.4,12.7c-1.2,6.3-2.2,16.1-2.7,21.9c-0.4,5.8-0.3,7.7-0.8,9.9c-0.5,2.3-1.6,4.9-1.6,8.4c0,3.5,1.2,7.9,1.2,14.3
	c0.1,6.5-0.9,15.2-1.4,21.3c-0.5,6.1-0.5,9.6,0.2,12.3c0.7,2.7,2,4.7,1.9,7.7s-1.6,7-1.7,9.9s1.3,4.8,1.2,7.1s-1.6,5.2-2.4,10
	c-0.7,4.8-0.7,11.7-0.6,15.9c0.2,4.3,0.5,5.9,2.5,6.2c1.6,0.2,4.4-0.5,8.2-1.1L0,321h400.1v-63.6H259.5v0l-0.6,0.1l0-0.1
	c1-2.8,1.2-7.2,0.8-11.3s-1.4-7.9-2.4-12.4c-1-4.5-2-9.7-4.6-15.3c-2.6-5.7-6.7-11.8-9.3-16.2s-3.6-6.8-7.1-12.1
	c-3.5-5.3-9.5-13.3-13.8-20.9c-4.3-7.7-7-15-9-20.8c-1.2-3.5-2.2-6.4-4-9.6c-0.1-3.9-2-8.7-4.4-12c-3.1-4.2-7.2-5.9-9.6-8
	c-2.4-2.1-3.1-4.5-2-6c1.1-1.5,3.9-2,5.8-4.5c1.9-2.5,2.9-7,1.1-11.3c-1.8-4.3-6.4-8.4-9.2-13.3c-2.8-4.9-3.8-10.7-5.6-16.8
	c-1.8-6.2-4.5-12.8-8.3-17.9c-3.8-5.1-8.7-8.8-12.2-12.4c-7.4-7.7-11.1-18.3-19.1-26.1c-4.1-4-8.7-6.3-14-8
	c-5.3-1.7-11.4-2.7-16.4-2.4c-5,0.3-8.8,2-11.9,2.3c-3.1,0.3-5.4-0.7-8-0.1c-2.6,0.7-5.6,3-8.3,6.2c-2.7,3.1-5.3,7.1-8.4,11.9
	c-3.1,4.8-6.8,10.5-9.8,16.5s-5.5,12.4-6.8,19.6s-1.6,15.1-0.5,21.7c1.1,6.6,3.5,12,4.1,16.4c0.6,4.5-0.5,8.2-2.7,13.2
	c-2.2,5-5.4,11.3-5.4,17.7C57.8,128.6,58.4,131.6,58.9,134.5z M77.3,302c0.7-1.2,2.3-1.8,3.3-1.4c0.3,0.1,0.5,0.3,0.7,0.5L77.3,302z
	 M114.1,293c2.1-0.7,5-1.3,9.5-2.4c1.7-0.4,3.6-0.9,5.8-1.4L114.1,293z M201.4,217.4c1.1,0.4,2.3,3.1,3.4,5.3s2.2,3.9,3,6
	c0.9,2.1,1.5,4.6,1.6,5.9c0.2,1.3-0.2,1.3-1.2,1.5c-1,0.2-2.8,0.6-4.4,1.2c-1.5,0.6-2.8,1.3-3.5,0c-0.7-1.3-0.8-4.6-1.1-7.8
	c-0.3-3.1-0.7-6.1-0.3-8.5C199.2,218.8,200.3,217,201.4,217.4z"/>
<polygon class="st1" points="153.9,303.7 51,318.8 22.3,314.2 113.1,293.3 "/>
<path class="st2" d="M139.7,141.1c1.6,5.4,7.4,7.8,11.9,14.1c4.5,6.3,7.5,16.5,9.7,26.1c2.2,9.6,3.4,18.5,4.9,25.5
	c1.5,6.9,3.1,11.8,4.6,17.6c1.5,5.8,2.8,12.5,3.8,17c1,4.5,1.7,6.8,1.7,8.1c0,1.2-0.7,1.4-1.9,1.5s-2.9,0.2-4,0.5
	c-1.1,0.3-1.6,0.9-4.4,1.7c-2.8,0.7-7.8,1.7-11.3,2.6c-3.5,0.9-5.6,1.9-7,2.5c-1.4,0.6-2.2,0.9-3,1c-0.8,0.1-1.6,0.1-2.2,0.5
	c-0.6,0.3-0.9,1-1.2,1.6c-0.3,0.6-0.7,1.2-0.3,1.3c0.4,0.1,1.4-0.4,2.4-0.6c0.9-0.2,1.8,0,2.6,0.6c0.8,0.6,1.6,1.7,2.6,3.5
	c1,1.8,2,4.4,2.9,6.8c0.9,2.4,1.5,4.6,1.9,6.3c0.3,1.3,0.4,2.4,0.2,4.3c3.4-0.7,6.9-1.5,10.8-2.3c19.1-4.1,43.7-9.1,59.7-12.4
	c15.9-3.2,23.1-4.7,27.6-6.2c4.5-1.4,6.3-2.7,7.3-5.6c1-2.8,1.2-7.2,0.8-11.3s-1.4-7.9-2.4-12.4c-1-4.5-2-9.7-4.6-15.3
	c-2.6-5.7-6.7-11.8-9.3-16.2s-3.6-6.8-7.1-12.1c-3.5-5.3-9.5-13.3-13.8-20.9c-4.3-7.7-7-15-9-20.8c-1.2-3.5-2.2-6.4-4-9.6
	c-0.1-3.9-2-8.7-4.4-12c-3.1-4.2-7.2-5.9-9.6-8c-2.4-2.1-3.1-4.5-2-6c1.1-1.5,3.9-2,5.8-4.5c1.9-2.5,2.9-7,1.1-11.3
	c-1.3-3-4-6-6.4-9.2c-6.2,6.2-12,12.7-17.8,17.4c-11.5,9.4-22.2,11.7-28.9,17C140.7,127.5,138.1,135.8,139.7,141.1z M201.4,217.4
	c1.1,0.4,2.3,3.1,3.4,5.3s2.2,3.9,3,6c0.9,2.1,1.5,4.6,1.6,5.9c0.2,1.3-0.2,1.3-1.2,1.5c-1,0.2-2.8,0.6-4.4,1.2
	c-1.5,0.6-2.8,1.3-3.5,0c-0.7-1.3-0.8-4.6-1.1-7.8c-0.3-3.1-0.7-6.1-0.3-8.5C199.2,218.8,200.3,217,201.4,217.4z M57.9,128.1
	c12.4,3.1,25.2,6.7,33.3,9.6c12.6,4.6,13.8,7.6,16,14.2c2.1,6.6,5.1,16.9,7.8,30c2.7,13.2,5,29.4,6.4,44.5
	c1.4,15.2,1.9,29.3,2.2,36.4c0.3,7.1,0.3,7.1-1.2,7.3c-1.5,0.2-4.5,0.6-7.3,1.3c-2.8,0.7-5.3,1.6-7.2,2.2c-1.9,0.6-3.1,0.9-4.5,1.2
	c-1.3,0.4-2.7,0.8-3.6,1.2c-0.9,0.4-1.4,0.7-1.7,1.2c-0.3,0.5-0.5,1-1.2,1.6c-0.8,0.5-2.1,1-3.3,1.6c-1.1,0.6-2.1,1.3-2.5,2.2
	c-0.5,0.9-0.5,1.8-0.8,2.6c-0.4,0.7-1.1,1.1-1.9,1.9c-0.8,0.8-1.7,2-2,1.8c-0.3-0.1,0-1.5,0.5-2.8c0.5-1.3,1.2-2.6,2.1-3.8
	c0.9-1.2,1.9-2.4,2.3-3.6s0.2-2.4-0.8-3.5c-0.9-1.2-2.6-2.3-5-3.5s-5.6-2.4-8.1-3.2s-4.1-1.1-5.5-1.1c-1.4,0-2.6,0.3-3.8,0.9
	c-1.2,0.6-2.3,1.5-4.2,1.7c-1.9,0.3-4.5-0.1-6.6-0.3s-3.8-0.1-5.1,0.5c-1.4,0.5-2.4,1.5-3.8,3c-1.4,1.5-3,3.5-4.5,5.4
	c-1.4,1.9-2.7,3.6-4.8,5.5c-2.1,1.8-4.9,3.7-7.5,6.4c-2.6,2.6-4.9,6-6.5,9c-1.6,3-2.4,5.7-2.7,7.9s-0.1,3.9,0,5.8
	c0,0.4,0,0.8-0.1,1.2c-1.4-0.6-1.6-2.3-1.8-6c-0.2-4.3-0.2-11.1,0.6-15.9c0.8-4.8,2.3-7.7,2.4-10s-1.3-4.2-1.2-7.1s1.6-6.9,1.7-9.9
	s-1.2-5-1.9-7.7c-0.7-2.7-0.7-6.3-0.2-12.3c0.5-6.1,1.5-14.8,1.4-21.3c-0.1-6.5-1.2-10.8-1.2-14.3c0-3.5,1.2-6.2,1.6-8.4
	c0.5-2.2,0.3-4.1,0.8-9.9c0.4-5.8,1.4-15.7,2.7-21.9c1.2-6.2,2.7-8.9,3.4-12.7c0.7-3.9,0.5-8.8,1.8-11.7c1.2-2.8,3.9-3.5,12.8-6.2
	c3.6-1.1,8.1-2.6,13.8-4.3C58.6,132.4,58.1,130.3,57.9,128.1z"/>
<path class="st3" d="M176.1,250.4c2.2,0,4.3-0.3,5.7-1c1.4-0.8,2-2.1,4.6-3.8c2.6-1.7,7.2-3.8,10.2-5.1c2.9-1.3,4.2-1.9,6.1-2.4
	c1.9-0.5,4.5-0.9,6.9-1.6c2.5-0.6,4.8-1.4,8.1-2.2c3.3-0.7,7.4-1.4,8.6-2.3s-0.4-2-0.1-2.9c0.3-0.9,2.6-1.7,5.6-1.4
	c3.1,0.2,6.9,1.4,10,2.7s5.3,2.5,7.7,5.2c2.4,2.7,4.9,6.7,6.4,9.8c1.6,3.1,2.1,5.2,2.5,5c0.4-0.2,0.5-2.7,0.1-5.5
	c-0.4-2.8-1.4-5.9-5.3-8.9c-3.9-3.1-10.5-6-14.5-7.7c-4-1.6-5.3-2-6.8-2.4c-1.4-0.4-3-0.9-2-1.2c1-0.4,4.7-0.7,8.1-1
	c3.4-0.4,6.6-0.9,6.7-1.4c0.1-0.5-2.8-1.2-6.9-1.2c-4.1,0.1-9.4,0.9-11.2,0.4c-1.9-0.5-0.4-2.1,2.8-2.9c3.2-0.8,8.1-0.6,12.3,0.3
	c4.3,1,7.9,2.8,8.7,2.5c0.9-0.3-1.1-2.6-4.5-4.1c-3.3-1.6-8.1-2.3-11.9-2.2c-3.8,0.1-6.8,1-9.5,1c-2.7,0.1-5-0.7-4.3-2.4
	c0.7-1.7,4.6-4.3,7.4-6.6c2.8-2.3,4.7-4.4,2.5-3.7c-2.1,0.7-8.3,4-17.3,2.3c-9-1.7-20.9-8.3-30.8-14.8c-9.3-6.1-16.7-12-21.8-13.9
	c0.4,1.4,0.7,2.9,1,4.3c2.2,9.6,3.4,18.5,4.9,25.5c1.5,6.9,3.1,11.8,4.6,17.6c1.5,5.8,2.8,12.5,3.8,17c1,4.5,1.7,6.8,1.7,8.1
	C176.3,249.9,176.2,250.2,176.1,250.4z M201.4,217.4c1.1,0.4,2.3,3.1,3.4,5.3s2.2,3.9,3,6c0.9,2.1,1.5,4.6,1.6,5.9
	c0.2,1.3-0.2,1.3-1.2,1.5c-1,0.2-2.8,0.6-4.4,1.2c-1.5,0.6-2.8,1.3-3.5,0c-0.7-1.3-0.8-4.6-1.1-7.8c-0.3-3.1-0.7-6.1-0.3-8.5
	C199.2,218.8,200.3,217,201.4,217.4z M89.2,218.5c-2.5,2.9-3.4,13.2-6.3,21.3c-2.9,8.1-7.9,13.9-11.1,12.6c-3.2-1.3-4.6-9.7-5.2-16
	c-0.6-6.3-0.5-10.3-3.3-8.8c-2.8,1.5-8.7,8.7-13.2,17c-4.5,8.3-7.5,17.7-5.6,19.7c2,2,9-3.4,13.3-7c4.3-3.6,6-5.4,6.4-3.9
	c0.4,1.4-0.4,6-4.2,9.9c-3.7,3.9-10.4,7-16.2,9.4c-5.8,2.4-10.9,4.1-13.5,1c-2.6-3.1-2.9-11-0.1-18.1c2.8-7,8.8-13.2,13.7-17.2
	c5-4,9-5.8,7.5-6.7C50,231,43,231.2,38,229.7s-7.9-4.7-9.7-8.4c-1.8-3.7-2.5-8-1-7.1c1.4,0.8,5,6.7,8.1,9.5c3.1,2.8,5.6,2.5,4.6-0.6
	c-1.1-3.1-5.8-8.9-8.3-16.8c-2.5-7.9-2.6-17.8-1.6-28.2c1-10.4,3.2-21.2,5.4-24.4c2.2-3.1,4.3,1.4,5.7,6.2c1.4,4.8,2,10.1,2.2,8.5
	c0.3-1.6,0.2-10,3.8-16.2c3.7-6.2,11.1-10.1,17.5-13.8c6.4-3.7,11.8-7.2,2.6-6.9c-2.2,0.1-5.2,0.3-8.8,0.9l0.3,2
	c-5.7,1.7-10.3,3.1-13.8,4.3c-8.9,2.7-11.6,3.4-12.8,6.2c-1.2,2.8-1.1,7.8-1.8,11.7c-0.7,3.8-2.2,6.5-3.4,12.7
	c-1.2,6.3-2.2,16.1-2.7,21.9c-0.4,5.8-0.3,7.7-0.8,9.9c-0.5,2.3-1.6,4.9-1.6,8.4c0,3.5,1.2,7.9,1.2,14.3c0.1,6.5-0.9,15.2-1.4,21.3
	c-0.5,6.1-0.5,9.6,0.2,12.3c0.7,2.7,2,4.7,1.9,7.7s-1.6,7-1.7,9.9s1.3,4.8,1.2,7.1s-1.6,5.2-2.4,10c-0.7,4.8-0.7,11.7-0.6,15.9
	c0.1,3.7,0.4,5.4,1.8,6c0.1-0.5,0.1-0.9,0.1-1.2c-0.1-1.8-0.3-3.6,0-5.8s1.2-4.8,2.7-7.9c1.6-3,3.9-6.3,6.5-9
	c2.6-2.6,5.4-4.5,7.5-6.4c2-1.8,3.3-3.6,4.8-5.5c1.5-1.9,3.1-3.9,4.5-5.4c1.4-1.5,2.4-2.5,3.8-3c1.3-0.5,3-0.6,5.1-0.5
	s4.7,0.5,6.6,0.3c1.9-0.3,3.1-1.1,4.2-1.7c1.2-0.6,2.4-0.9,3.8-0.9c1.4,0,3.1,0.3,5.5,1.1s5.7,2,8.1,3.2s4,2.3,5,3.5
	c1,1.1,1.2,2.3,0.8,3.5s-1.4,2.4-2.3,3.6c-0.9,1.2-1.6,2.5-2.1,3.8c-0.5,1.3-0.8,2.7-0.5,2.8c0.3,0.1,1.2-1,2-1.8
	c0.8-0.8,1.5-1.2,1.9-1.9c0.3-0.7,0.3-1.7,0.8-2.6c0.5-0.9,1.4-1.6,2.5-2.2c1.2-0.6,2.5-1,3.3-1.6c0.8-0.5,0.9-1.1,1.2-1.6
	c0.3-0.5,0.8-0.8,1.7-1.2c0.9-0.4,2.3-0.8,3.6-1.2c1.3-0.3,2.6-0.6,4.5-1.2c1.9-0.6,4.5-1.5,7.2-2.2c2.7-0.7,5.8-1.1,7.3-1.3
	c1.5-0.2,1.5-0.2,1.2-7.3c-0.3-7.1-0.7-21.2-2.2-36.4c-1.4-15.2-3.7-31.4-6.4-44.5c-2.7-13.2-5.7-23.4-7.8-30
	c-0.9-2.9-1.7-5.1-3.3-7c0.9,7.1,3,18.4,4.9,29c2.7,15.3,4.8,29.4,5,41.9c0.2,12.6-1.7,23.6-4.5,30c-2.8,6.4-6.5,8.4-8.2,4.1
	c-1.7-4.3-1.2-14.8-3.2-22.3C96,220.1,91.8,215.6,89.2,218.5z"/>
<path class="st4" d="M103.7,2.4c3.1-0.3,6.9-2,11.9-2.3c5-0.3,11.1,0.7,16.4,2.4c5.3,1.7,9.9,4,14,8c4.1,4,7.8,9.7,10.7,14.3
	c2.9,4.6,4.9,8.2,8.4,11.8c3.5,3.6,8.4,7.3,12.2,12.4c3.8,5.1,6.4,11.7,8.3,17.9c1.8,6.2,2.8,11.9,5.6,16.8c2.8,4.9,7.4,9,9.2,13.3
	c1.8,4.3,0.8,8.8-1.1,11.3c-1.9,2.5-4.7,3-5.8,4.5c-1.1,1.4-0.4,3.9,2,6c2.4,2.1,6.4,3.8,9.6,8c3.1,4.2,5.3,10.8,4.1,14.9
	c-1.2,4.2-5.8,5.9-8.6,10.2c-2.8,4.3-3.8,11.1-2.3,17c1.4,5.9,5.4,10.8,9.6,12.8c4.3,2,8.8,1.2,11.6-0.7c2.8-1.9,3.8-4.8,3.8-3.6
	s-1,6.4-3.8,9.2c-2.8,2.8-7.4,3.3-9.1,4.7c-1.7,1.5-0.5,4,1.9,4.6c2.5,0.6,6.2-0.6,9.4-3.2c3.1-2.6,5.6-6.5,6.9-5.9
	c1.3,0.6,1.5,5.7,0,9.4c-1.6,3.7-4.8,6-8.2,7.9c-3.5,1.8-7.1,3.2-12.1,3.2c-5,0-11.3-1.3-16.8-4.1c-5.5-2.8-10.1-7.1-10.1-5.5
	c-0.1,1.5,4.5,8.9,6.2,15.3c1.8,6.4,0.7,12-1.6,16.2c-2.3,4.2-5.9,6.9-6.5,5.3c-0.7-1.6,1.6-7.6-0.3-16.3c-1.9-8.6-8-20-13.9-30.7
	c-5.9-10.7-11.5-20.8-15.5-28.4c-4-7.6-6.3-12.8-7.1-20.4c-0.7-7.6,0.1-17.6,1.8-24.9c1.7-7.3,4.3-12,6-17.1
	c1.6-5.1,2.4-10.6,2.7-16.3c0.3-5.8,0.2-11.8-1-15.3c-1.3-3.5-3.8-4.5-7.4-6.3c-3.6-1.8-8.4-4.5-12.4-8.2c-4-3.7-7.3-8.6-9.8-12.5
	c-2.5-4-4.4-7-6.9-9.5c-2.5-2.4-5.8-4.2-9.2-4.4c-3.3-0.2-6.8,1.1-9.2,1.3c-2.3,0.2-3.5-0.7-4.9-0.4c-1.4,0.3-2.9,1.7-4.6,3.9
	c-1.7,2.1-3.6,4.9-4.9,8.3c-1.3,3.4-1.9,7.3-1.8,10.7c0.2,3.4,1.2,6.2,1.9,10.6c0.8,4.4,1.2,10.3,2.3,15.8c1,5.5,2.5,10.6,3.9,14.9
	c1.4,4.3,2.7,7.8,5,11.3c2.3,3.5,5.5,7,8.8,11c3.2,4,6.5,8.4,7.9,12.6c1.4,4.2,1,8.2-0.9,14.2c-1.9,6-5.2,13.9-7.6,20.4
	c-2.4,6.6-3.9,11.8-3.8,17.4c0.1,5.6,1.8,11.4,4.9,16.3c3.2,4.9,7.9,8.8,7.1,9.4c-0.8,0.6-7.1-2.2-12-6.5
	c-4.9-4.4-8.5-10.4-10.8-10.8s-3.4,4.7-1.6,11.7c1.9,6.9,6.7,15.6,8.3,22.3c1.6,6.7-0.1,11.3-4.9,15.1c-4.8,3.8-12.8,6.6-13.6,5.4
	c-0.7-1.2,5.8-6.5,5.7-14.1c-0.1-7.7-6.6-17.7-10.9-24.6c-4.3-6.9-6.3-10.5-8.9-10.9c-2.6-0.4-5.9,2.6-6,7.2
	c-0.1,4.6,2.9,10.9,3.5,15.5c0.6,4.5-1.2,7.3-4.5,9.4c-3.2,2.1-7.8,3.6-8,2.7s4-4.4,4.9-8.5c0.9-4.1-1.4-9-4.1-13.7
	c-2.7-4.7-5.8-9.3-4.6-13.7c1.2-4.4,6.6-8.6,7.3-13.6c0.7-5-3.3-11-1.8-16c1.4-5,8.4-9.1,10.3-14.4c2-5.3-1-11.8-1-18.2
	c0.1-6.4,3.3-12.8,5.4-17.7c2.2-5,3.3-8.7,2.7-13.2c-0.6-4.5-3-9.8-4.1-16.4c-1.1-6.6-0.9-14.5,0.5-21.7S66.1,43,69.1,37
	s6.7-11.7,9.8-16.5c3.1-4.8,5.7-8.8,8.4-11.9c2.7-3.2,5.7-5.6,8.3-6.2C98.3,1.6,100.7,2.7,103.7,2.4z"/>
<path class="st5" d="M152.1,65.1c-1.3-3.5-3.8-4.5-7.4-6.3c-3.6-1.8-8.4-4.5-12.4-8.2c-4-3.7-7.3-8.6-9.8-12.5c-2.5-4-4.4-7-6.9-9.5
	c-2.5-2.4-5.8-4.2-9.2-4.4c-3.3-0.2-6.8,1.1-9.2,1.3c-2.3,0.2-3.5-0.7-4.9-0.4c-1.4,0.3-2.9,1.7-4.6,3.9c-1.7,2.1-3.6,4.9-4.9,8.3
	c-1.3,3.4-1.9,7.3-1.8,10.7c0.2,3.4,1.2,6.2,1.9,10.6c0.8,4.4,1.2,10.3,2.3,15.8c1,5.5,2.5,10.6,3.9,14.9c1.4,4.3,2.7,7.8,5,11.3
	c2.3,3.5,5.5,7,8.8,11c3.2,4,6.5,8.4,7.9,12.6c1.4,4.2,1,8.2-0.9,14.2c-0.2,0.6-0.4,1.2-0.6,1.9c1.2,1.4,2.3,2.6,3.3,3.7
	c3.2,3.7,5.8,7.6,6.7,11.8c0.9,4.3,0,9,0.7,13.3c0.7,4.3,2.8,8.3,5.5,12.6c2.7,4.3,5.8,8.9,7.5,10.6c1.6,1.7,1.8,0.7,2.6-2.7
	c0.7-3.4,2.1-9,3.8-14.5c1.7-5.5,3.8-10.8,7.2-16.2c0.5-0.8,1-1.6,1.6-2.4c-3.1-6.2-5-11-5.7-17.7c-0.7-7.6,0.1-17.6,1.8-24.9
	c1.7-7.3,4.3-12,6-17.1c1.6-5.1,2.4-10.6,2.7-16.3C153.4,74.6,153.3,68.6,152.1,65.1z"/>
<path class="st6" d="M98,105.3c2.5,1.7,4.5,3.5,6.3,5c2.4,2,4.3,3.5,6.1,4.9c1.8,1.4,3.6,2.6,5.7,3.4c2.2,0.8,4.7,1,7.3,0.7
	c2.6-0.3,5.2-1.2,7.7-2.7c2.6-1.5,5.1-3.6,7.8-6.3c2.7-2.6,5.7-5.8,7.5-8.7c1.9-2.9,2.8-5.7,3.5-9.4c0.7-3.7,1.2-8.2,0.9-13.1
	c-0.4-4.8-1.7-10-4.4-14.4c-2.2-3.6-5.4-6.7-7.3-9.1c2,1.2,3.9,2.2,5.5,3.1c3.6,1.8,6.1,2.8,7.4,6.3c1.3,3.5,1.4,9.5,1,15.3
	c-0.3,5.8-1.1,11.3-2.7,16.3c-1.7,5.1-4.3,9.8-6,17.1c-1.7,7.3-2.5,17.3-1.8,24.9c0.7,6.7,2.6,11.5,5.7,17.7
	c-0.5,0.8-1.1,1.6-1.6,2.4c-3.4,5.3-5.5,10.7-7.2,16.2c-1.7,5.5-3,11.2-3.8,14.5c-0.3,1.2-0.5,2.2-0.7,2.8c-0.4,1-0.8,1-1.9-0.1
	c-1.7-1.8-4.8-6.3-7.5-10.6c-2.7-4.3-4.8-8.3-5.5-12.6c-0.7-4.3,0.2-9-0.7-13.3c-0.4-1.8-1-3.5-1.9-5.2c-1.2-2.3-2.9-4.5-4.7-6.6
	c-1-1.2-2.1-2.3-3.3-3.7c0.2-0.7,0.4-1.3,0.6-1.9c1.9-6,2.3-10,0.9-14.2c-1.4-4.2-4.7-8.6-7.9-12.6C101.3,109.2,99.6,107.2,98,105.3
	z"/>
<path class="st7" d="M136.2,49.3c2,2.4,3.8,5.2,8,8.1c4.2,2.9,10.7,5.8,16.2,9c5.6,3.1,10.1,6.5,12.6,10.3c2.5,3.9,2.8,8.2,1.8,12.8
	c-1,4.6-3.2,9.4-3.9,9.2s0.1-5.4-0.3-8.7c-0.5-3.2-2.2-4.4-3.7-1.1c-1.5,3.3-2.7,11.1-0.5,19c2.2,8,7.9,16.1,11.4,24.6
	c3.5,8.5,4.8,17.3,3.7,17.3c-1.1,0-4.7-9-9.2-14.7c-4.5-5.8-9.8-8.5-12.7-5c-2.9,3.4-3.3,12.9-0.9,22.6c2.4,9.7,7.5,19.6,11.6,28.7
	s7,17.2,9.1,23.7c2.1,6.5,3.5,11.3,3.4,16c-0.1,3.9-1.2,7.7-3.3,11.8c0.2-2.7,1.2-7.9-0.3-14.6c-1.9-8.6-8-20-13.9-30.7
	c-5.9-10.7-11.5-20.8-15.5-28.4c-4-7.6-6.3-12.8-7.1-20.4c-0.7-7.6,0.1-17.6,1.8-24.9c1.7-7.3,4.3-12,6-17.1
	c1.6-5.1,2.4-10.6,2.7-16.3c0.3-5.8,0.2-11.8-1-15.3c-1.3-3.5-3.8-4.5-7.4-6.3c-3.6-1.8-8.4-4.5-12.4-8.2c-4-3.7-7.3-8.6-9.8-12.5
	c-2.5-4-4.4-7-6.9-9.5c-2.5-2.4-5.8-4.2-9.2-4.4c-2.2-0.1-4.5,0.4-6.5,0.8c1.9-1.6,5-2.9,8.5-3.2c4.1-0.3,8.6,0.8,12.4,4.6
	c3.7,3.8,6.5,10.3,9,14.5C132.2,45,134.2,46.9,136.2,49.3z M82.3,38.7c-2.3,2.7-4.2,6.2-5.2,10c-1.3,4.8-1.4,9.9-2.6,14.7
	c-1.2,4.7-3.4,9-3.1,9.8c0.4,0.8,3.4-1.8,5.3-5c1.9-3.3,2.6-7.3,3.9-6.4c1.2,0.9,3,6.7,3.3,13.1c0.4,6.4-0.6,13.5,0.8,20.6
	c1.4,7.1,5.2,14.3,9.2,19.8c4.1,5.5,8.4,9.3,9.2,15.6c0.8,6.3-2,15-4.5,22c-2.6,7-4.9,12.3-5.7,16.9c-0.8,4.7-0.1,8.8,1,12
	s2.4,5.8,5.2,9c2.6,2.9,6.5,6.3,10.3,10.7c0.6,0.2,1,0.2,1.2,0.1c0.8-0.6-3.9-4.5-7.1-9.4c-3.1-4.9-4.8-10.7-4.9-16.3
	c-0.1-5.5,1.4-10.8,3.8-17.4c2.4-6.6,5.8-14.5,7.6-20.4c1.9-6,2.3-10,0.9-14.2c-1.4-4.2-4.7-8.6-7.9-12.6c-3.3-4-6.5-7.5-8.8-11
	c-2.3-3.5-3.6-7-5-11.3c-1.4-4.3-2.9-9.4-3.9-14.9c-1-5.5-1.5-11.4-2.3-15.8c-0.7-4.4-1.7-7.2-1.9-10.6C81,44.9,81.4,41.7,82.3,38.7
	z"/>
<path class="st1" d="M166.1,206.8c-1.4-6.9-2.7-15.9-4.9-25.5c-0.1-0.6-0.3-1.2-0.4-1.8c-4.3-7.7-8.2-14.8-11.2-20.5
	c-0.5-0.9-0.9-1.8-1.4-2.7c-0.5,0.8-1.1,1.6-1.6,2.4c-3.4,5.3-5.5,10.7-7.2,16.2c-1.7,5.5-3,11.2-3.8,14.5c-0.8,3.4-0.9,4.5-2.6,2.7
	c-1.7-1.8-4.8-6.3-7.5-10.6c-2.7-4.3-4.8-8.3-5.5-12.6c-0.7-4.3,0.2-9-0.7-13.3c-0.9-4.3-3.5-8.2-6.7-11.8c-1-1.2-2.1-2.3-3.3-3.7
	c-0.9,2.7-2.1,5.8-3.3,8.8c0.4,0.9,0.7,2,1.1,3.1c2.1,6.6,5.1,16.9,7.8,30c2.7,13.2,5,29.4,6.4,44.5c1.4,15.2,1.9,29.3,2.2,36.4
	c0.2,5.4,0.3,6.7-0.4,7.1c1.4,0.1,2.2,0.1,2.9-0.2c0.9-0.3,1.5-0.9,2.4-1.5c0.9-0.6,2.1-1.2,3.4-1.6c1.3-0.4,2.7-0.7,4.1-0.7
	c1.4,0,2.8,0.2,4.7,1.4c1.9,1.2,4.3,3.4,6.2,5.8c2,2.4,3.5,5,4.7,7.4c0.5,1,0.9,1.9,1.5,3.3c0.2-0.1,0.5-0.1,0.7-0.1
	c0.2-1.9,0.1-3-0.2-4.3c-0.4-1.7-1-3.9-1.9-6.3c-0.9-2.4-2-5-2.9-6.8c-1-1.8-1.8-2.9-2.6-3.5c-0.9-0.6-1.7-0.7-2.6-0.6
	c-0.9,0.2-2,0.6-2.4,0.6c-0.3-0.1,0-0.7,0.3-1.3c0.3-0.6,0.7-1.3,1.2-1.6c0.6-0.3,1.4-0.3,2.2-0.5c0.8-0.1,1.6-0.4,3-1
	c1.4-0.6,3.5-1.6,7-2.5c3.5-0.9,8.5-1.9,11.3-2.6c2.8-0.8,3.3-1.3,4.4-1.7c1.1-0.3,2.8-0.4,4-0.5s1.9-0.3,1.9-1.5
	c0-1.3-0.7-3.6-1.7-8.1c-1-4.5-2.3-11.2-3.8-17C169.3,218.7,167.6,213.7,166.1,206.8z"/>
<path class="st8" d="M31.3,310.4c-1.2-3.6-1.4-6.5-1-9.3c0.3-2.8,1.2-5.6,2.6-8.3c1.2-2.2,2.7-4.5,4.1-7.1c-1.7,1.4-3.6,2.8-5.4,4.6
	c-2.6,2.6-4.9,6-6.5,9c-1.6,3-2.4,5.7-2.7,7.9s-0.1,3.9,0,5.8c0,0.4,0,0.8-0.1,1.2c0.2,0.1,0.5,0.1,0.7,0.2c1.8,0.2,4.8-0.7,9.2-1.2
	C31.9,312.3,31.5,311.3,31.3,310.4z"/>
<path class="st9" d="M31.3,296.6c-0.7,0.1-1.2,0.7-1.6,1.2c-1,1.4-1.2,2.9-1.8,4.3c-0.7,1.3-1.7,2.4-2.5,3.6
	c-0.7,1.3-1.2,2.7-1.2,4.1c-0.1,1.4,0.2,2.6,0.6,4.2c0,0.1,0.1,0.3,0.1,0.4c1.8-0.2,4.3-0.8,7.4-1.2c-0.3-0.9-0.7-1.9-1-2.7
	c-1.2-3.6-1.4-6.5-1-9.3C30.4,299.6,30.8,298.1,31.3,296.6z"/>
<path class="st10" d="M166.1,206.8c-1.4-6.9-2.7-15.9-4.9-25.5c-0.1-0.6-0.3-1.2-0.4-1.8c-3-5.4-5.9-10.6-8.3-15.2
	c-1.9,1.6-3.4,3.1-4.2,4.3c-2.1,3.3,1.8,4,4.4,6.2c2.6,2.3,3.9,6.1,2.9,11.9c-1,5.8-4.3,13.5-6.9,19.3s-4.4,9.5-2.5,8.8
	c1.9-0.7,7.6-5.8,10.9-8.5c3.4-2.8,4.5-3.3,6.2,1.7c1.8,5,4.2,15.5,4,22c-0.2,6.5-2.9,8.9-6.7,10.4c-3.8,1.6-8.6,2.2-10.6,1.6
	c-2-0.6-1-2.5,0.6-4.8c1.6-2.2,4-4.8,3-6.3c-0.9-1.4-5.1-1.8-7.7-2.6c-2.7-0.9-3.8-2.2-3.7,0.9c0.2,3.1,1.6,10.5,2,15.6
	c0.4,5.1-0.4,7.8-3.5,9.1c-3.2,1.3-8.8,1.1-10.2-0.4c-1.4-1.5,1.3-4.3,3.7-7.3c2.4-3,4.5-6.2,3.1-7.1c-1.4-0.9-6.2,0.4-10.6,2.2
	c-1.5,0.6-2.9,1.3-4.3,2.1c0.5,8.2,0.7,15.2,0.9,19.5c0.2,5.4,0.3,6.7-0.4,7.1c1.4,0.1,2.2,0.1,2.9-0.2c0.9-0.3,1.5-0.9,2.4-1.5
	c0.9-0.6,2.1-1.2,3.4-1.6c0.7-0.2,1.3-0.4,2-0.5c1-0.7,1.7-1.2,2.7-1.6c1.2-0.5,2.9-1.2,5.1-1.8c0.7-0.2,1.4-0.4,2.3-0.6
	c-0.2,0-0.4,0-0.5,0.1c-0.9,0.2-2,0.6-2.4,0.6c-0.3-0.1,0-0.7,0.3-1.3c0.3-0.6,0.7-1.3,1.2-1.6c0.6-0.3,1.4-0.3,2.2-0.5
	c0.8-0.1,1.6-0.4,3-1c1.4-0.6,3.5-1.6,7-2.5c3.5-0.9,8.5-1.9,11.3-2.6c2.8-0.8,3.3-1.3,4.4-1.7c1.1-0.3,2.8-0.4,4-0.5
	s1.9-0.3,1.9-1.5c0-1.3-0.7-3.6-1.7-8.1c-1-4.5-2.3-11.2-3.8-17C169.3,218.7,167.6,213.7,166.1,206.8z"/>
<path class="st5" d="M122.3,270.2c-1.5,0.2-4.5,0.6-7.3,1.3c-2.8,0.7-5.3,1.6-7.2,2.2c-1.9,0.6-3.1,0.9-4.5,1.2
	c-1.3,0.4-2.7,0.8-3.6,1.2c-0.9,0.4-1.4,0.7-1.7,1.2c-0.3,0.5-0.5,1-1.2,1.6c-0.8,0.5-2.1,1-3.3,1.6c-1.1,0.6-2.1,1.3-2.5,2.2
	c-0.5,0.9-0.5,1.8-0.8,2.6c-0.4,0.7-1.1,1.1-1.9,1.9c-0.8,0.8-1.7,2-2,1.8c-0.3-0.1,0-1.5,0.5-2.8c0.5-1.3,1.2-2.6,2.1-3.8
	c0.9-1.2,1.9-2.4,2.3-3.6s0.2-2.4-0.8-3.5c-0.9-1.2-2.6-2.3-5-3.5s-5.6-2.4-8.1-3.2s-4.1-1.1-5.5-1.1c-1.4,0-2.6,0.3-3.8,0.9
	c-1.2,0.6-2.3,1.5-4.2,1.7c-1.9,0.3-4.5-0.1-6.6-0.3s-3.8-0.1-5.1,0.5c-1.4,0.5-2.4,1.5-3.8,3c-1.4,1.5-3,3.5-4.5,5.4
	c-1.4,1.9-2.7,3.6-4.8,5.5c-0.7,0.6-1.4,1.1-2.1,1.7c-1.4,2.6-2.9,4.8-4.1,7.1c-0.7,1.2-1.2,2.5-1.6,3.7c-0.5,1.5-0.9,3-1,4.5
	c-0.3,2.8-0.1,5.7,1,9.3c0.3,0.9,0.6,1.8,1,2.7c0.6-0.1,1.2-0.1,1.8-0.2c5.3-0.5,12.3-0.3,18.9-0.6c6.6-0.3,12.8-0.9,16.8-1.8
	c4.1-0.8,6.1-1.8,6.7-3.3c0.7-1.5,0-3.5,0.6-4.9c0.6-1.4,2.4-2.2,3.5-1.8c1.1,0.4,1.4,2.1,3.1,2.7c1.7,0.7,4.7,0.3,7.3-0.1
	c2.6-0.4,4.7-0.9,6.3-1.8s2.6-2,3.7-2.2c1.1-0.2,2.2,0.7,3.7-0.1c1.5-0.8,3.3-3.1,5.7-4.6c2.3-1.5,5.2-2.2,13.3-4.1
	c6.4-1.5,16.2-3.8,29.3-6.7c-0.5-1.4-1-2.4-1.5-3.3c-1.2-2.4-2.7-5-4.7-7.4c-2-2.4-4.3-4.6-6.2-5.8c-1.9-1.2-3.3-1.4-4.7-1.4
	c-0.7,0-1.4,0.1-2.1,0.2c-0.7,0.1-1.3,0.3-2,0.5c-1.3,0.4-2.5,1-3.4,1.6c-0.9,0.6-1.6,1.2-2.4,1.5c-0.7,0.2-1.5,0.3-2.9,0.2
	C122.9,270.1,122.7,270.1,122.3,270.2z"/>
<path class="st6" d="M135.9,266c1,0.9,2.1,1.8,3,2.9c2.4,2.7,4.5,6.1,5,8.6c0.6,2.5-0.3,4.2-1.5,5.1c-1.2,0.9-2.8,1-3.9,0
	c-1.1-1-1.7-3.2-2-2.9c-0.2,0.3-0.1,3-1.2,4.6s-3.4,2-6.3,2.2c-2.9,0.1-6.5,0-8.9-0.3s-3.7-0.5-4.4-0.9s-0.8-0.9-1.4-0.5
	c-0.7,0.3-1.9,1.6-3,3.1c-1.1,1.6-2,3.4-2.6,5c-0.6,1.5-0.9,2.7-1.6,4.5c1-0.9,2-1.9,3.3-2.7c2.3-1.5,5.2-2.2,13.3-4.1
	c6.4-1.5,16.2-3.8,29.3-6.7c-0.5-1.4-1-2.4-1.5-3.3c-1.2-2.4-2.7-5-4.7-7.4c-2-2.4-4.3-4.6-6.2-5.8C138.7,266.2,137.3,266,135.9,266
	z"/>
<path class="st6" d="M69.2,273.3c2,0.3,3.8,0.4,5.5,1c1.6,0.6,3.1,1.7,4.8,2c1.7,0.3,3.5-0.1,3.7,0.3c0.1,0.4-1.5,1.5-2,2.9
	c-0.5,1.4,0,3,0.8,4.4c0.8,1.4,1.7,2.5,1.3,2.2c-0.5-0.3-2.3-2-3.3-3.4c-1-1.4-1.3-2.4-2.2-3.5c-0.9-1.2-2.4-2.4-4.7-3.4
	c-2.2-1-5.1-1.8-6.9-2.4c-1.8-0.6-2.7-0.9-1.9-0.8C64.8,272.5,67.2,273,69.2,273.3z M104.1,279.7c0,0.1-0.1,1.6-0.4,3.2
	c-0.3,1.6-0.7,3.3-0.8,4.8c-0.2,1.4-0.1,2.6-0.4,4.1c-0.3,1.5-0.9,3.2-1,4.4c-0.2,1.2,0.1,1.7,0.7,2.2c0.6,0.5,1.5,0.8,2.3,0.7
	c0.3,0,0.6,0,0.8-0.1c-0.2,0.2-0.5,0.3-0.7,0.4c-1.5,0.7-2.7-0.1-3.7,0.1c-1.1,0.1-2.1,1.3-3.7,2.2s-3.7,1.3-6.3,1.8
	c-0.6,0.1-1.1,0.2-1.7,0.2l-0.1,0H89l-0.1,0h-0.1l-0.2,0h-0.1l-0.1,0h-0.3l-0.1,0h-0.2l-0.1,0h-0.3l-0.1,0H87l0,0h-1.2
	c-0.1,0-0.2,0-0.3,0h-0.2l-0.1,0H85l-0.1,0h-0.1c-0.4-0.1-0.8-0.2-1.2-0.3c-1.7-0.7-2-2.4-3.1-2.7c-0.5-0.2-1.3-0.1-2,0.3
	c0.3-0.7,0.8-1.5,1-2.6c0.3-1.5,0-3.6-0.5-5.2c-0.6-1.7-1.4-3-2.4-3.4s-2.2,0.1-5.3-0.8c-3.1-0.9-8.2-3.2-11.3-4.6
	c-3.1-1.5-4.3-2.2-4.3-2.5c-0.1-0.4,0.9-0.5,2.9,0.3s5.1,2.4,7.7,3.6c2.6,1.1,4.8,1.8,6.5,2.1c1.7,0.3,2.9,0.4,3.9-0.1
	c1-0.5,1.7-1.5,2-1.3c0.3,0.1,0,1.4,0.3,2.8c0.3,1.4,1.2,3,2.1,4s1.7,1.3,2.4,1c0.7-0.3,1.2-1.3,1.6-1c0.4,0.3,0.6,1.7,0.6,3
	c0,1.3-0.3,2.3,0,3c0.3,0.7,1.2,1.1,2.1,1.2c0.6,0.1,1.3-0.1,1.7,0.2c0.5-0.6,0.9-1.3,1.3-2c1-1.6,1.9-3.2,2.6-4.8
	c0.7-1.6,1.2-3.2,1.5-4.4c0.3-1.2,0.5-2,0.9-3.1c0.4-1.1,1.1-2.5,1.2-2.4s-0.3,1.9-0.7,3.5c-0.5,1.6-1,3.1-1.5,4.6
	c-0.5,1.5-0.9,3-1.2,4.3c-0.3,1.3-0.5,2.3-0.1,2.9c0.5,0.6,1.6,0.7,2.9,0.3c1.2-0.5,2.5-1.6,3.4-3c1-1.4,1.6-3.3,2-4.9
	c0.4-1.7,0.4-3.2,0.7-4.8c0.3-1.6,0.8-3.2,1.2-4.6C103.9,280.7,104.1,279.5,104.1,279.7z M77.2,302.1c-0.5-0.7-1-1.4-1.6-1.9
	c-1.5-1.5-3-2.4-5.4-3.3c-2.4-0.9-5.8-1.7-9.4-2.6c-3.6-0.9-7.4-1.8-8.1-1.7c-0.7,0.1,1.9,1.2,5.1,2.1c3.2,1,7.1,1.9,10.1,2.9
	c2.9,1,5,2.1,6.2,3.3c1.2,1.2,1.5,2.5,1.5,3.6c0.1,1.1-0.1,2-1.8,2.3c-1.7,0.3-4.8-0.1-9.1-1c-4.3-0.9-9.7-2.3-10.5-2.3
	c-0.8,0,3.1,1.3,5.7,2.4c2.6,1.1,3.9,2,3.9,2.8s-1.4,1.6-4.1,2.1c-2.8,0.4-7,0.4-10.6-0.3c-3.7-0.7-6.8-2.2-8.8-2.4
	c-2-0.2-2.9,0.9-3.8,0.9c-1,0.1-2-0.9-2.8-2.6c-0.8-1.6-1.3-3.9-1.2-6.2c0.1-2.3,0.7-4.7,1.3-7.3c0.3-0.9,0.5-1.9,0.6-2.6
	c-0.5,0.9-1,1.7-1.5,2.6c-0.7,1.2-1.2,2.5-1.6,3.7c-0.5,1.5-0.9,3-1,4.5c-0.3,2.8-0.1,5.7,1,9.3c0.3,0.9,0.6,1.8,1,2.7
	c0.6-0.1,1.2-0.1,1.8-0.2c5.3-0.5,12.3-0.3,18.9-0.6c6.6-0.3,12.8-0.9,16.8-1.8c4.1-0.8,6.1-1.8,6.7-3.3c0.7-1.5,0-3.5,0.6-4.9
	C77.1,302.3,77.2,302.2,77.2,302.1z"/>
<path class="st11" d="M34.2,233.9c2,2.3,5.8,6.9,10.6,12.8c4.8,5.9,10.7,13,14.4,17.5c3.7,4.5,5.1,6.4,6,7.6
	c0.9,1.2,1.4,1.8,0.7,1.7c-0.7-0.1-2.6-1-4.2-1.8c-1.6-0.7-2.9-1.3-3.6-1.7c-0.7-0.3-0.8-0.5-4.2-4.6c-3.3-4.1-9.9-12.1-14.6-17.9
	c-4.7-5.8-7.5-9.2-8.9-11.1c-1.5-1.9-1.6-2.3-1.6-2.7c0-0.4,0.2-0.8,0.5-1.2c0.3-0.4,0.6-0.7,1-0.9c0.4-0.2,0.9-0.2,1.3-0.2
	C31.9,231.4,32.1,231.5,34.2,233.9z"/>
<path class="st12" d="M28.9,233.1c2.1,1.6,4.3,3.9,6.6,6.5c4.9,5.6,10.5,12.8,14.7,17.8c4.1,5,6.7,8,9.1,10.3c2.1,2,4,3.5,6.8,5.6
	h-0.1c-0.7-0.1-2.6-1-4.2-1.8c-1.6-0.7-2.9-1.3-3.6-1.7c-0.7-0.3-0.8-0.5-4.2-4.6c-3.3-4.1-9.9-12.1-14.6-17.9
	c-4.7-5.8-7.5-9.2-8.9-11.1c-1.5-1.9-1.6-2.3-1.6-2.7C28.8,233.5,28.9,233.3,28.9,233.1z"/>
<path class="st1" d="M37.5,237.8c-0.7,1-1.4,1.6-2.4,2.2c-0.4,0.3-0.8,0.5-1.3,0.7c-1.5-1.9-2.6-3.3-3.4-4.3
	c-1.5-1.9-1.6-2.3-1.6-2.7c0-0.4,0.2-0.8,0.5-1.2c0.3-0.4,0.6-0.7,1-0.9c0.4-0.2,0.9-0.2,1.3-0.2c0.4,0,0.7,0.1,2.7,2.4
	C35,234.8,36.1,236.2,37.5,237.8z"/>
<path class="st13" d="M36.4,236.5c-0.5,0.6-1,1.1-1.6,1.6c-0.7,0.5-1.3,1-2.1,1.3c-1-1.2-1.8-2.2-2.3-3c-1.5-1.9-1.6-2.3-1.6-2.7
	c0-0.4,0.2-0.8,0.5-1.2c0.3-0.4,0.6-0.7,1-0.9c0.4-0.2,0.9-0.2,1.3-0.2c0.4,0,0.7,0.1,2.7,2.4C34.8,234.5,35.5,235.4,36.4,236.5z"/>
<path class="st14" d="M32.9,232.4c-0.1,0.7-0.4,1.2-1.1,1.8c-0.6,0.5-1.5,0.9-2.3,1c-0.6-0.9-0.7-1.2-0.7-1.4c0-0.4,0.2-0.8,0.5-1.2
	c0.3-0.4,0.6-0.7,1-0.9c0.4-0.2,0.9-0.2,1.3-0.2C31.8,231.4,32,231.5,32.9,232.4z"/>
<path class="st15" d="M30.9,234.3c-0.7-1.1-1-1.6-1-2.4c-0.3,0.2-0.5,0.4-0.7,0.7c-0.3,0.4-0.5,0.8-0.5,1.2c0,0.3,0,0.6,0.7,1.4
	c0.5-0.1,1-0.2,1.4-0.4c0.1-0.1,0.2-0.1,0.3-0.1C31.1,234.5,31,234.4,30.9,234.3z"/>
<path class="st16" d="M32.6,236.5c-0.5-0.6-1-1.3-1.4-1.9c-0.1,0.1-0.2,0.1-0.3,0.1c-0.4,0.2-0.9,0.4-1.4,0.4
	c0.2,0.3,0.5,0.7,0.9,1.2c0.6,0.8,1.3,1.7,2.3,3c0.6-0.2,1.1-0.5,1.6-0.9c-0.2-0.2-0.3-0.3-0.5-0.5C33.4,237.5,33,237,32.6,236.5z"
	/>
<polygon class="st17" points="357.8,269.9 265.3,303.7 162.5,301.9 285.3,261.2 "/>
<path class="st10" d="M35.5,239.7c-0.3-0.4-0.7-0.7-1.2-1.3c-0.5,0.4-1,0.7-1.6,0.9c0.3,0.4,0.7,0.9,1,1.3c0.5-0.2,0.9-0.4,1.3-0.7
	C35.2,239.9,35.4,239.8,35.5,239.7z"/>
<path class="st18" d="M290.9,173.2l97.4-24.7c2.5-0.6,3.3-0.5,2.7,3.5l-19.8,105c-0.5,1.9-1.4,3.2-3.2,3.9l-50.7,20.4l-49.8,18.5
	c-1.5,0.5-3.1,0.8-4.7,1l-93.3-3.5c-2.6-0.1,0.3-2.3,1.6-2.7l101.4-33.3l9.5-62.7l2.5-20.2C285,176.2,287.5,173.9,290.9,173.2z"/>
<path class="st19" d="M168.7,295.9l98.1-1.5l5.6-33.3L171,294.5C170.3,294.7,169.3,295.3,168.7,295.9z"/>
<path class="st20" d="M169.3,297.2l93.3,3.5c1.6-0.2,3.2-0.5,4.7-1l49.8-18.5l34.6-13.9l-84.4,30.2c-1.4,0.5-1.2,0.6-0.9-0.9
	l0.4-2.2l-98.1,1.5C168.1,296.6,168,297.2,169.3,297.2z"/>
<path class="st19" d="M384.3,161.5c1.9-1.5,3.8-3,5.7-4.5l1-5c0.6-4-0.2-4.1-2.7-3.5l-4,1l-93.4,23.8c-3.3,0.8-5.9,3-6.5,5
	l-2.5,20.2l-9.5,62.7C306.5,226,344.4,193.2,384.3,161.5z"/>
<polygon class="st21" points="210.7,293.1 267.2,291.9 270.3,273.1 "/>
</svg>
